# xmcd
#
# Track frame offsets:
#	150
#	15182
#	31928
#	43711
#	60706
#	82574
#	98940
#	114430
#	131489
#	144562
#
# Disc length: 2156 seconds
#
# Revision: 0
# Processed by: cddbd v1.5.1PL2 Copyright (c) Steve Scherf et al.
# Submitted via: dBpowerAMP V4.0
#
DISCID=71086a0a
DTITLE=COUNTRY - 1er tri. 2ème année
DYEAR=1900
DGENRE=
TTITLE0=Mexican Vacation
TTITLE1=Cannibal Stob
TTITLE2=Picnic Polka
TTITLE3=Live Laugh Love
TTITLE4=Straighten Up
TTITLE5=Reelin'& Rockin
TTITLE6=Save the Horse
TTITLE7=The Trail
TTITLE8=Ballimore Boys
TTITLE9=The Winchester
EXTD=
EXTT0=
EXTT1=
EXTT2=
EXTT3=
EXTT4=
EXTT5=
EXTT6=
EXTT7=
EXTT8=
EXTT9=
PLAYORDER=
